HIERARCHY
ROOT Hips
{
	OFFSET 0.000000 83.214638 0.000000
	CHANNELS 6 Xposition Yposition Zposition Xrotation Yrotation Zrotation
	JOINT Pelvis
	{
		OFFSET 0.000000 0.000000 0.000000
		CHANNELS 3 Xrotation Yrotation Zrotation
		JOINT LeftUpLeg
		{
			OFFSET 8.479700 -4.795502 -0.379100
			CHANNELS 3 Xrotation Yrotation Zrotation
			JOINT LeftLeg
			{
				OFFSET 0.024144 -32.555107 0.112900
				CHANNELS 3 Xrotation Yrotation Zrotation
				JOINT LeftFoot
				{
					OFFSET -0.024144 -32.638630 -3.012600
					CHANNELS 3 Xrotation Yrotation Zrotation
					JOINT LeftToeBase
					{
						OFFSET 0.970200 -13.225400 11.864200
						CHANNELS 3 Xrotation Yrotation Zrotation
						End Site
						{
							OFFSET 0.000000 12.319262 0.000000
						}
					}
					JOINT LFootTongue
					{
						OFFSET 1.142400 -1.059800 6.665200
						CHANNELS 3 Xrotation Yrotation Zrotation
						End Site
						{
							OFFSET 0.000000 12.319262 0.000000
						}
					}
				}
				JOINT LeftPantLeg
				{
					OFFSET 0.918482 -16.533964 -2.284700
					CHANNELS 3 Xrotation Yrotation Zrotation
					End Site
					{
						OFFSET 0.350399 24.744368 0.000000
					}
				}
			}
		}
		JOINT RightUpLeg
		{
			OFFSET -8.479700 -4.795502 -0.379100
			CHANNELS 3 Xrotation Yrotation Zrotation
			JOINT RightLeg
			{
				OFFSET -0.023144 -32.555092 0.112900
				CHANNELS 3 Xrotation Yrotation Zrotation
				JOINT RightFoot
				{
					OFFSET 0.023144 -32.638641 -3.012700
					CHANNELS 3 Xrotation Yrotation Zrotation
					JOINT RightToeBase
					{
						OFFSET -0.970200 -13.225400 11.864200
						CHANNELS 3 Xrotation Yrotation Zrotation
						End Site
						{
							OFFSET 0.000000 12.319244 0.000000
						}
					}
					JOINT RFootTongue
					{
						OFFSET -1.142200 -1.059800 6.665200
						CHANNELS 3 Xrotation Yrotation Zrotation
						End Site
						{
							OFFSET 0.000000 12.319243 0.000000
						}
					}
				}
				JOINT RightPantLeg
				{
					OFFSET -0.919482 -16.533978 -2.284800
					CHANNELS 3 Xrotation Yrotation Zrotation
					End Site
					{
						OFFSET -0.350400 24.744419 0.000000
					}
				}
			}
		}
	}
	JOINT Spine
	{
		OFFSET 0.000000 7.722000 1.166200
		CHANNELS 3 Xrotation Yrotation Zrotation
		JOINT Spine1
		{
			OFFSET 0.000000 12.024101 0.248800
			CHANNELS 3 Xrotation Yrotation Zrotation
			JOINT Spine2
			{
				OFFSET 0.000000 11.502998 -0.491200
				CHANNELS 3 Xrotation Yrotation Zrotation
				JOINT Neck
				{
					OFFSET 0.000000 18.430702 -3.123100
					CHANNELS 3 Xrotation Yrotation Zrotation
					JOINT Head
					{
						OFFSET 0.000000 9.051102 1.034000
						CHANNELS 3 Xrotation Yrotation Zrotation
						JOINT HairB
						{
							OFFSET 0.208400 24.786102 24.822300
							CHANNELS 3 Xrotation Yrotation Zrotation
							End Site
							{
								OFFSET 0.000000 32.263779 0.000000
							}
						}
						JOINT HairA
						{
							OFFSET -7.081100 24.428299 23.196600
							CHANNELS 3 Xrotation Yrotation Zrotation
							End Site
							{
								OFFSET 0.000000 32.263779 0.000000
							}
						}
						JOINT Hat
						{
							OFFSET 16.728800 15.048294 -15.439601
							CHANNELS 3 Xrotation Yrotation Zrotation
							End Site
							{
								OFFSET 0.000000 32.263779 0.000000
							}
						}
					}
				}
				JOINT LeftShoulder
				{
					OFFSET 6.197800 13.665199 -4.064700
					CHANNELS 3 Xrotation Yrotation Zrotation
					JOINT LeftArm
					{
						OFFSET 7.778100 -0.187103 -1.709300
						CHANNELS 3 Xrotation Yrotation Zrotation
						JOINT LeftForeArm
						{
							OFFSET 22.049376 0.000000 0.000000
							CHANNELS 3 Xrotation Yrotation Zrotation
							JOINT LeftHand
							{
								OFFSET 23.009392 0.000000 0.000000
								CHANNELS 3 Xrotation Yrotation Zrotation
								JOINT LeftHandThumb1
								{
									OFFSET 3.507191 -2.063065 3.133727
									CHANNELS 3 Xrotation Yrotation Zrotation
									JOINT LeftHandThumb2
									{
										OFFSET 3.101337 -1.790558 1.790558
										CHANNELS 3 Xrotation Yrotation Zrotation
										JOINT LeftHandThumb3
										{
											OFFSET 3.058640 -1.765907 1.765906
											CHANNELS 3 Xrotation Yrotation Zrotation
											End Site
											{
												OFFSET -0.415260 3.926476 -0.049563
											}
										}
									}
								}
								JOINT LeftHandIndex1
								{
									OFFSET 11.334419 -0.901459 3.706815
									CHANNELS 3 Xrotation Yrotation Zrotation
									JOINT LeftHandIndex2
									{
										OFFSET 3.283112 0.000000 0.000000
										CHANNELS 3 Xrotation Yrotation Zrotation
										JOINT LeftHandIndex3
										{
											OFFSET 3.323853 0.000000 0.000000
											CHANNELS 3 Xrotation Yrotation Zrotation
											End Site
											{
												OFFSET -1.135597 3.097809 0.402452
											}
										}
									}
								}
								JOINT LeftHandMiddle1
								{
									OFFSET 11.335861 0.000000 0.000000
									CHANNELS 3 Xrotation Yrotation Zrotation
									JOINT LeftHandMiddle2
									{
										OFFSET 3.410492 0.000000 0.000000
										CHANNELS 3 Xrotation Yrotation Zrotation
										JOINT LeftHandMiddle3
										{
											OFFSET 3.312172 0.000000 0.000000
											CHANNELS 3 Xrotation Yrotation Zrotation
											End Site
											{
												OFFSET -1.150200 3.080154 0.400270
											}
										}
									}
								}
								JOINT LeftHandRing1
								{
									OFFSET 11.514786 -0.013176 -3.003090
									CHANNELS 3 Xrotation Yrotation Zrotation
									JOINT LeftHandRing2
									{
										OFFSET 3.053307 0.000000 0.000000
										CHANNELS 3 Xrotation Yrotation Zrotation
										JOINT LeftHandRing3
										{
											OFFSET 3.295807 0.000000 0.000000
											CHANNELS 3 Xrotation Yrotation Zrotation
											End Site
											{
												OFFSET -1.281006 3.013344 0.375733
											}
										}
									}
								}
								JOINT LeftHandPinky1
								{
									OFFSET 10.518692 -0.960396 -5.730441
									CHANNELS 3 Xrotation Yrotation Zrotation
									JOINT LeftHandPinky2
									{
										OFFSET 2.861649 0.000000 0.000000
										CHANNELS 3 Xrotation Yrotation Zrotation
										JOINT LeftHandPinky3
										{
											OFFSET 2.863380 0.000000 0.000000
											CHANNELS 3 Xrotation Yrotation Zrotation
											End Site
											{
												OFFSET -0.843597 2.711159 0.369971
											}
										}
									}
								}
							}
							JOINT LSleeve
							{
								OFFSET 6.676277 -0.344902 -1.011730
								CHANNELS 3 Xrotation Yrotation Zrotation
								End Site
								{
									OFFSET 0.000000 14.885353 0.000000
								}
							}
						}
					}
				}
				JOINT RightShoulder
				{
					OFFSET -6.197800 13.665199 -4.064700
					CHANNELS 3 Xrotation Yrotation Zrotation
					JOINT RightArm
					{
						OFFSET -7.778100 -0.187103 -1.709300
						CHANNELS 3 Xrotation Yrotation Zrotation
						JOINT RightForeArm
						{
							OFFSET -22.049376 0.000000 0.000000
							CHANNELS 3 Xrotation Yrotation Zrotation
							JOINT RightHand
							{
								OFFSET -23.009392 0.000000 0.000000
								CHANNELS 3 Xrotation Yrotation Zrotation
								JOINT RightHandThumb1
								{
									OFFSET -3.507191 -2.063065 3.133727
									CHANNELS 3 Xrotation Yrotation Zrotation
									JOINT RightHandThumb2
									{
										OFFSET -3.101337 -1.790558 1.790558
										CHANNELS 3 Xrotation Yrotation Zrotation
										JOINT RightHandThumb3
										{
											OFFSET -3.058640 -1.765907 1.765906
											CHANNELS 3 Xrotation Yrotation Zrotation
											End Site
											{
												OFFSET 0.415260 3.926476 -0.049563
											}
										}
									}
								}
								JOINT RightHandIndex1
								{
									OFFSET -11.334419 -0.901459 3.706815
									CHANNELS 3 Xrotation Yrotation Zrotation
									JOINT RightHandIndex2
									{
										OFFSET -3.283112 0.000000 0.000000
										CHANNELS 3 Xrotation Yrotation Zrotation
										JOINT RightHandIndex3
										{
											OFFSET -3.323853 0.000000 0.000000
											CHANNELS 3 Xrotation Yrotation Zrotation
											End Site
											{
												OFFSET 1.135597 3.097809 0.402452
											}
										}
									}
								}
								JOINT RightHandMiddle1
								{
									OFFSET -11.335861 0.000000 0.000000
									CHANNELS 3 Xrotation Yrotation Zrotation
									JOINT RightHandMiddle2
									{
										OFFSET -3.410492 0.000000 0.000000
										CHANNELS 3 Xrotation Yrotation Zrotation
										JOINT RightHandMiddle3
										{
											OFFSET -3.312172 0.000000 0.000000
											CHANNELS 3 Xrotation Yrotation Zrotation
											End Site
											{
												OFFSET 1.150200 3.080154 0.400270
											}
										}
									}
								}
								JOINT RightHandRing1
								{
									OFFSET -11.514786 -0.013176 -3.003090
									CHANNELS 3 Xrotation Yrotation Zrotation
									JOINT RightHandRing2
									{
										OFFSET -3.053307 0.000000 0.000000
										CHANNELS 3 Xrotation Yrotation Zrotation
										JOINT RightHandRing3
										{
											OFFSET -3.295807 0.000000 0.000000
											CHANNELS 3 Xrotation Yrotation Zrotation
											End Site
											{
												OFFSET 1.281006 3.013344 0.375733
											}
										}
									}
								}
								JOINT RightHandPinky1
								{
									OFFSET -10.518692 -0.960396 -5.730441
									CHANNELS 3 Xrotation Yrotation Zrotation
									JOINT RightHandPinky2
									{
										OFFSET -2.861649 0.000000 0.000000
										CHANNELS 3 Xrotation Yrotation Zrotation
										JOINT RightHandPinky3
										{
											OFFSET -2.863380 0.000000 0.000000
											CHANNELS 3 Xrotation Yrotation Zrotation
											End Site
											{
												OFFSET 0.843597 2.711159 0.369971
											}
										}
									}
								}
							}
							JOINT RSleeve
							{
								OFFSET -6.676277 -0.344902 -1.011730
								CHANNELS 3 Xrotation Yrotation Zrotation
								End Site
								{
									OFFSET 0.000000 14.885353 0.000000
								}
							}
						}
					}
				}
				JOINT Backpack
				{
					OFFSET 0.000000 -2.471497 36.677502
					CHANNELS 3 Xrotation Yrotation Zrotation
					End Site
					{
						OFFSET 0.000000 20.427315 0.000000
					}
				}
				JOINT Hood
				{
					OFFSET 0.000000 18.754097 -10.431000
					CHANNELS 3 Xrotation Yrotation Zrotation
					JOINT Hood1
					{
						OFFSET 0.000000 -5.011002 -7.685901
						CHANNELS 3 Xrotation Yrotation Zrotation
						End Site
						{
							OFFSET 0.000000 9.175140 0.000000
						}
					}
				}
				JOINT LHoodieString
				{
					OFFSET 5.250500 16.397697 3.089900
					CHANNELS 3 Xrotation Yrotation Zrotation
					JOINT LHoodieString1
					{
						OFFSET 0.257700 -6.364304 3.694600
						CHANNELS 3 Xrotation Yrotation Zrotation
						JOINT LHoodieString2
						{
							OFFSET 0.000000 -9.643799 2.679100
							CHANNELS 3 Xrotation Yrotation Zrotation
							End Site
							{
								OFFSET 0.000000 10.009018 0.000000
							}
						}
					}
				}
				JOINT RHoodieString
				{
					OFFSET -5.250500 16.397697 3.089900
					CHANNELS 3 Xrotation Yrotation Zrotation
					JOINT RHoodieString1
					{
						OFFSET -0.257700 -6.364304 3.694600
						CHANNELS 3 Xrotation Yrotation Zrotation
						JOINT RHoodieString2
						{
							OFFSET 0.000000 -9.643799 2.679100
							CHANNELS 3 Xrotation Yrotation Zrotation
							End Site
							{
								OFFSET 0.000000 10.009018 0.000000
							}
						}
					}
				}
			}
			JOINT LBackpack_Strap
			{
				OFFSET 15.223200 -7.719803 -6.610900
				CHANNELS 3 Xrotation Yrotation Zrotation
				End Site
				{
					OFFSET 0.000000 16.040596 0.000000
				}
			}
			JOINT RBackpack_Strap
			{
				OFFSET -15.223000 -7.719803 -6.610900
				CHANNELS 3 Xrotation Yrotation Zrotation
				End Site
				{
					OFFSET 0.000000 16.040596 0.000000
				}
			}
		}
	}
	JOINT BoyFacialAnim_Joint
	{
		OFFSET 1.000000 -82.208099 -1.550900
		CHANNELS 3 Xrotation Yrotation Zrotation
		End Site
		{
			OFFSET 0.000000 30.012791 0.000000
		}
	}
}
MOTION
Frames: 4
Frame Time: 0.033333
1.172725 78.573608 95.139069 -3.029586 5.096735 -4.301985 0.000000 -0.000000 -0.000000 2.965357 7.713660 8.931823 44.517233 -5.619425 0.323075 8.606727 -0.094527 -8.002522 0.000001 -0.000000 0.000000 0.000001 -0.000000 0.000000 -0.000003 -0.000000 -0.000000 -28.377594 -7.100362 5.478016 27.778373 5.610453 1.297198 6.292723 -0.294283 -6.604709 0.000000 0.000001 0.000000 0.000000 0.000001 0.000000 0.000000 -0.000001 0.000001 15.329122 -1.694052 4.121837 -4.751521 -2.559718 0.917944 -4.773530 -2.300921 1.314551 -2.778185 0.698983 0.771956 -6.717734 1.241732 -1.417051 0.000000 0.000000 -0.000000 0.000000 0.000000 -0.000000 0.000000 0.000000 -0.000000 2.514748 2.578456 -3.797597 -11.028420 -21.561828 -74.059167 0.544208 -19.335895 -4.032772 -7.467031 -1.123256 12.542189 -4.997918 13.351537 11.297012 3.519383 8.490616 1.852595 -0.000001 0.000002 0.000000 0.061141 -9.541680 -26.117530 -0.034001 0.057346 -22.714824 -0.000001 -0.000003 -0.000004 -1.087924 -8.237708 -29.993748 0.002191 0.006004 -25.259653 -0.000000 -0.000003 -0.000000 -2.508684 -8.706074 -35.243687 0.001179 0.003116 -28.753867 0.000001 0.000000 0.000001 -4.200939 -9.169658 -40.114285 -0.004842 0.004746 -31.976395 0.000001 -0.000002 0.000001 -0.000000 0.000001 -0.000001 3.438325 -0.121468 3.339212 5.595306 30.849465 71.614766 11.713670 7.786042 14.640101 -33.308234 4.278653 -13.367258 -0.786768 -20.526720 -5.070536 4.559311 -11.109729 -2.322947 0.000001 -0.000003 0.000001 0.953919 0.333013 26.053753 -0.034814 -0.056634 21.830362 -0.000000 -0.000000 -0.000002 -0.251589 1.488327 27.049359 0.004934 -0.001591 22.489165 0.000001 0.000000 -0.000004 -1.281323 3.340452 30.108611 0.000830 -0.007271 24.544792 0.000000 -0.000001 0.000000 -2.706838 5.524398 33.315177 0.000228 -0.004063 26.664760 -0.000002 -0.000001 -0.000002 -0.000002 0.000001 -0.000000 -0.000000 -0.000000 0.000000 -0.000000 -0.000000 0.000000 -0.000000 -0.000000 0.000000 -0.000000 -0.000000 0.000000 -0.000000 -0.000000 0.000000 -0.000000 -0.000000 0.000000 -0.000000 -0.000000 0.000000 -0.000000 -0.000000 0.000000 -0.000000 -0.000000 0.000000 -0.000000 0.000000 0.000000 -0.000000 0.000000 0.000000 0.000000 -0.000000 -0.000000 
0.889104 78.623474 98.235352 -2.652983 4.912896 -5.314381 -0.000000 -0.000000 -0.000000 -2.644887 6.986167 10.456569 52.369977 -2.381677 0.373045 14.840760 -0.288051 -8.722299 0.000000 0.000000 -0.000000 0.000000 0.000000 0.000000 -0.000000 -0.000000 -0.000000 -27.331490 -7.420037 6.894864 30.690028 5.280123 1.377556 2.139363 0.042033 -7.442382 0.000000 0.000001 -0.000000 0.000000 0.000001 -0.000000 -0.000000 0.000000 -0.000000 15.053993 -1.251381 5.028650 -4.867400 -2.472103 1.193818 -4.897025 -2.138562 1.571711 -2.802464 1.016231 0.381234 -6.068022 1.289954 -0.995774 0.000000 0.000000 0.000000 0.000000 0.000000 0.000000 0.000000 0.000000 0.000000 2.507338 2.500370 -3.611387 -12.670571 -17.179430 -75.539269 1.382730 -13.717307 -5.986807 -2.876594 -3.356403 12.745204 -4.990429 13.383672 11.305356 3.516795 8.485054 1.851266 -0.000000 -0.000000 0.000004 0.230462 -7.494113 -25.984808 -0.034095 0.057304 -22.625715 -0.000004 0.000003 -0.000005 -0.874954 -6.443286 -29.993444 0.002277 0.006061 -25.277398 0.000003 -0.000000 -0.000003 -2.195464 -6.891909 -35.404590 0.001193 0.003296 -28.897728 -0.000004 0.000002 -0.000004 -3.789474 -7.364328 -40.483204 -0.003982 0.006032 -32.280249 -0.000006 -0.000002 -0.000000 -0.000001 0.000000 0.000001 3.394760 0.413457 2.750489 5.121872 31.102807 70.835427 10.302230 8.701410 14.537313 -31.347457 3.302723 -13.078144 -0.793925 -20.498812 -5.065188 4.574427 -11.142311 -2.329782 -0.000000 0.000002 0.000000 0.568264 2.827962 25.656837 -0.035086 -0.056417 21.565120 -0.000001 -0.000001 -0.000004 -0.504458 3.192390 26.980396 0.004638 -0.001325 22.435307 0.000001 -0.000000 0.000001 -1.528210 4.561822 30.283935 0.000771 -0.008077 24.652292 0.000001 -0.000000 0.000004 -2.912256 6.183932 33.709395 0.000885 -0.005223 26.920298 -0.000003 -0.000001 0.000000 -0.000003 0.000000 -0.000000 0.000000 -0.000000 -0.000000 0.000000 -0.000000 -0.000000 0.000000 -0.000000 -0.000000 0.000000 -0.000000 -0.000000 0.000000 -0.000000 -0.000000 0.000000 -0.000000 -0.000000 0.000000 -0.000000 -0.000000 0.000000 -0.000000 -0.000000 0.000000 -0.000000 -0.000000 -0.000001 0.000000 -0.000000 -0.000001 0.000000 -0.000000 -0.000000 -0.000000 -0.000000 
0.607312 78.745605 101.268028 -2.762594 5.131940 -5.646355 0.000000 0.000000 -0.000000 -9.210817 5.749799 10.946757 60.758337 1.860224 0.474935 20.368741 -0.785270 -7.801789 -0.000001 0.000001 -0.000002 -0.000001 0.000001 -0.000002 0.000001 0.000000 0.000000 -25.434784 -7.263978 7.763082 32.778884 4.506054 1.376485 -1.679307 0.449383 -7.995913 0.000000 -0.000001 0.000000 0.000000 -0.000001 0.000000 0.000001 0.000000 0.000000 15.370859 -0.889322 5.440159 -4.952396 -2.154426 0.973051 -4.986082 -1.836443 1.306756 -2.601327 0.525721 1.296234 -5.980513 1.195926 -1.233069 0.000001 0.000000 0.000000 0.000001 0.000000 0.000000 0.000001 0.000000 0.000000 2.506118 2.353088 -3.392789 -14.045358 -14.107159 -75.720570 3.104130 -8.328779 -7.649760 0.297664 -4.473838 12.816658 -4.988051 13.387488 11.306723 3.517301 8.486168 1.851562 0.000000 -0.000000 -0.000002 0.401413 -4.720308 -27.765387 -0.032899 0.058220 -23.831732 -0.000003 -0.000001 -0.000002 -0.737635 -4.116631 -31.598299 0.008210 0.010288 -26.385875 0.000004 -0.000000 -0.000003 -2.001746 -4.687328 -37.239120 0.001606 0.011367 -30.179966 0.000002 -0.000003 -0.000002 -3.561851 -5.339958 -42.672679 0.000723 0.012368 -33.816943 -0.000006 -0.000001 -0.000000 -0.000000 0.000002 -0.000000 3.429996 0.161075 3.567881 5.444194 31.658412 68.854761 9.910138 10.845022 13.926103 -30.776173 3.208831 -14.203804 -0.798531 -20.483579 -5.062167 4.582300 -11.159101 -2.333351 -0.000000 -0.000001 -0.000001 0.276206 4.901771 24.457173 -0.035866 -0.055725 20.753555 0.000002 0.000001 0.000002 -0.662405 4.387637 26.665014 0.003539 -0.000459 22.216254 0.000001 0.000000 -0.000000 -1.675699 5.106877 30.707605 0.000751 -0.009945 24.932176 -0.000002 0.000001 0.000006 -3.003208 5.985162 34.899634 0.003051 -0.008647 27.727599 -0.000003 -0.000002 -0.000000 0.000002 -0.000000 -0.000000 0.000000 0.000000 0.000000 0.000000 0.000000 0.000000 0.000000 0.000000 0.000000 0.000000 0.000000 0.000000 0.000000 0.000000 -0.000000 -0.000000 0.000000 -0.000000 0.000000 0.000000 0.000000 0.000000 0.000000 -0.000000 -0.000000 0.000000 -0.000000 0.000001 0.000000 -0.000000 0.000001 0.000000 -0.000000 0.000000 0.000000 -0.000000 
0.344896 79.139282 104.376305 -2.927873 5.242776 -5.388427 0.000000 -0.000000 0.000001 -14.799717 4.514267 10.489363 65.416267 3.410751 0.542294 19.193182 -0.722395 -6.796790 -0.000000 -0.000000 -0.000001 -0.000000 -0.000000 -0.000000 -0.000003 0.000001 -0.000000 -22.482891 -7.260644 8.046350 33.116585 4.448169 1.351422 -4.724752 0.837637 -8.564349 -0.000000 0.000001 -0.000000 -0.000000 0.000001 -0.000000 0.000001 0.000000 0.000000 15.635372 -0.573320 5.330188 -4.998681 -1.743891 0.583981 -5.033348 -1.481342 0.862035 -2.100743 -0.088837 2.361156 -6.209392 1.042146 -1.495135 0.000000 0.000000 0.000000 0.000000 0.000000 0.000000 0.000000 0.000000 0.000000 2.497732 2.358714 -3.255168 -12.113410 -12.983650 -74.927086 4.573481 -7.788061 -8.354392 -0.028665 -1.663645 12.669212 -5.019790 13.304697 11.282001 3.577259 8.612495 1.880108 -0.000001 -0.000001 -0.000003 0.165367 -6.790306 -28.364819 -0.032464 0.058495 -24.237565 0.000000 0.000001 0.000002 -0.932234 -5.723914 -31.347372 0.007201 0.009644 -26.201429 0.000004 -0.000001 -0.000002 -2.142014 -6.112276 -36.072186 0.001260 0.005744 -29.365336 0.000002 0.000001 -0.000004 -3.587487 -6.585723 -40.489727 -0.003841 0.006600 -32.308639 -0.000000 0.000001 -0.000003 0.000001 -0.000001 0.000001 3.541539 -0.544955 5.241650 5.525188 31.524171 66.779347 11.650023 13.683907 12.408971 -32.037477 2.790887 -15.056541 -0.797008 -20.495738 -5.064269 4.576285 -11.146234 -2.330586 -0.000001 -0.000002 0.000001 0.357004 4.311664 23.680467 -0.036368 -0.055315 20.227778 -0.000001 0.000000 0.000004 -0.587619 4.062497 26.251381 0.002110 0.000666 21.937820 -0.000000 0.000000 -0.000000 -1.638876 4.976501 30.590532 0.000767 -0.009378 24.854442 0.000000 0.000001 0.000004 -3.043673 6.048762 35.097637 0.003415 -0.009274 27.860185 -0.000003 -0.000000 -0.000002 0.000001 -0.000000 0.000000 0.000000 -0.000000 0.000000 0.000000 -0.000000 0.000000 0.000000 -0.000000 0.000000 0.000000 -0.000000 0.000000 0.000000 -0.000000 0.000000 -0.000000 -0.000000 0.000000 0.000000 -0.000000 0.000000 0.000000 -0.000000 0.000000 -0.000000 -0.000000 0.000000 0.000000 -0.000000 0.000000 0.000000 -0.000000 0.000000 0.000000 -0.000000 0.000001 
